<svg xmlns="http://www.w3.org/2000/svg" viewBox="0 0 1450 1450"><path d="M725 1447.039h0c398.605 0 721.738-323.268 721.738-722.039S1123.605 2.961 725 2.961C326.395 2.961 3.262 326.23 3.262 725S326.395 1447.039 725 1447.039h0z" stroke="#fff"/><path d="M562.848 953.35c28.648 20.314 61.298 35.42 96.547 43.923l66.567 211.573 66.565-211.573c101.743-24.544 181.829-104.089 206.54-205.145l213.012-66.115-200.755-62.313-77.608 69.56c-3.703 110.667-95.984 199.59-207.517 199.197-28.834.272-55.445-5.87-79.921-15.767l-83.43 36.66h0zM889.62 498.977c-47.265-33.6-97.218-44.357-97.218-44.357L725.96 243.177l-66.566 211.572c-101.743 24.545-181.829 104.09-206.54 205.145L239.842 726.01l206.241 64.015 72.023-65.81c.777-113.237 93.045-203.984 207.773-204.537 28.433-1.858 74.497 12.03 79.856 15.657l83.884-36.358h0zm-217.945 143.38L251.79 1022.45l522.805-220.028 422.098-376.395-525.018 216.329h0zM345.571 962.39l418.574-176.056-82.258-128.34L345.571 962.39h0zM725.493 86.266v-63.44m-.013 1343.64v63.439M1368.622 725h62.528M86.649 725H23.122m1342.419-61.32l63.221-6.212-63.221 6.212zM89.668 788.42l-63.222 6.212 63.222-6.213zm1266.637-186.932l62.307-12.376-62.307 12.376zM98.841 850.621l-62.306 12.376 62.306-12.376zM1341.005 540.5l60.79-18.42-60.79 18.42zM114.08 911.623l-60.79 18.42 60.79-18.42zM1319.83 481.41l58.69-24.277-58.69 24.277zM135.198 970.735l-58.691 24.277 58.69-24.277zM1292.96 424.674l56.029-29.9-56.029 29.9zM162.01 1027.498l-56.028 29.9 56.028-29.9zm1098.586-656.753l52.82-35.245-52.82 35.245zM194.322 1081.46l-52.821 35.244 52.82-35.244zm1028.767-761.212l49.103-40.25M231.778 1131.995l-49.103 40.25m998.206-898.497l44.92-44.859-44.92 44.859zm-906.94 904.789l-44.921 44.858 44.92-44.858zm860.375-946.939l40.305-49.035-40.305 49.035zm-813.853 989.135l-40.305 49.035 40.305-49.035zm763.285-1026.59l35.294-52.748-35.294 52.748zM370.994 1258.237l-35.294 52.747 35.294-52.747zM790.407 89.342l6.221-63.134-6.22 63.134zM664.231 1363.327l-6.221 63.134 6.221-63.134zm365.514-1201.505l29.941-55.951-29.941 55.95zM424.965 1290.61l-29.941 55.95 29.941-55.95zM972.93 134.99l24.31-58.61-24.31 58.61zM481.753 1317.497l-24.31 58.61 24.31-58.61zM913.65 113.812l18.436-60.709M541.012 1338.735l-18.435 60.71M852.686 98.564l12.393-62.22-12.393 62.22zM601.962 1354.042l-12.394 62.22 12.394-62.22zm188.445 9.347l6.221 63.134M665.495 89.28l-6.22-63.134m193.41 1328.02l12.394 62.22M603.209 98.441l-12.394-62.22m322.942 1302.666l18.447 60.706M542.12 113.66l-18.446-60.706M972.93 1317.741l24.31 58.61M482.928 134.748l-24.31-58.61m571.128 1214.772l29.941 55.95m-633.6-1185.337l-29.942-55.951m687.604 1153.017l35.294 52.748M372.05 193.79l-35.293-52.748m797.559 1080.092l40.305 49.036M321.446 231.195l-40.306-49.036m899.741 996.826l44.92 44.858M274.84 273.298l-44.92-44.858m993.17 904.044l49.103 40.25M232.585 319.756l-49.104-40.25m1077.115 802.48l52.82 35.244M195.028 370.218l-52.82-35.245M1365.54 789.05l63.221 6.212M89.792 663.05l-63.221-6.213m1266.39 371.221l56.029 29.9M162.609 424.114l-56.029-29.9m1213.25 577.107l58.69 24.277M135.685 480.824l-58.691-24.277m1264.044 455.576l60.793 18.41M114.418 540.001l-60.793-18.41m1302.68 329.652l62.307 12.376M99.089 600.866L36.783 588.49" stroke="#fff"/></svg>