<svg xmlns="http://www.w3.org/2000/svg" width="1450" height="1451"><g stroke="#FFF"><path d="M98.602 3.121v1444.263m1348.75-95.51H3.125M1447.352 97.188H3.125m1446.352 628.05H1m1446.352 722.145L3.125 3.12m1444.227.001L3.125 1447.384m1446.352-451.97H1m1448.477-541.765H1m1349.46 993.734V3.12M725.238 1449.504V1.027m268.76 1448.477V1.027M455.064 1449.504V1.027m539.903 724.234c0 149.26-120.759 270.275-269.728 270.275-148.968 0-269.727-121.015-269.727-270.275 0-149.278 120.759-270.265 269.727-270.265 148.97 0 269.728 120.987 269.728 270.265h0z"/><path d="M1107.54 725.261c0 209.902-171.17 380.065-382.302 380.065-211.131 0-382.3-170.163-382.3-380.065 0-209.91 171.169-380.072 382.3-380.072 211.132 0 382.301 170.162 382.301 380.072h0z"/><path d="M1351.776 725.261c0 346.347-280.51 627.113-626.538 627.113-346.029 0-626.537-280.766-626.537-627.113 0-346.364 280.508-627.103 626.537-627.103 346.029 0 626.538 280.739 626.538 627.103h0z"/><path d="M3.125 1122.375c0 179.5 146.37 325.009 326.922 325.009l790.382-.14c180.545 0 326.923-145.536 326.923-325.01V328.158c0-179.5-146.368-325.036-326.923-325.036l-790.382.158C149.503 3.28 3.125 148.796 3.125 328.305v794.07h0z"/></g></svg>